<svg width="175.802979" height="30.741211" viewBox="0 0 175.803 30.7412" fill="none" xmlns="http://www.w3.org/2000/svg" xmlns:xlink="http://www.w3.org/1999/xlink">
	<desc>
			Created with Pixso.
	</desc>
	<defs/>
	<path id="ArchiWeb" d="M90.33 5.59Q90.99 5.95 91.84 5.95Q92.69 5.95 93.34 5.59Q93.69 5.4 93.98 5.11Q94.27 4.82 94.46 4.47Q94.82 3.82 94.82 2.97Q94.82 2.11 94.45 1.45Q94.26 1.12 93.98 0.84Q93.69 0.54 93.34 0.35Q92.69 0 91.84 0Q90.99 0 90.33 0.35Q89.99 0.54 89.69 0.84Q89.41 1.12 89.22 1.45Q88.85 2.11 88.85 2.97Q88.85 3.82 89.21 4.47Q89.4 4.82 89.69 5.11Q89.99 5.4 90.33 5.59ZM19.69 30.27Q19.83 30.36 20.02 30.36L24.22 30.36Q24.49 30.36 24.6 30.22Q24.68 30.13 24.68 29.98Q24.68 29.85 24.64 29.77L15.48 1.38Q15.42 1.16 15.27 1.05Q15.14 0.96 14.94 0.96L9.69 0.96Q9.49 0.96 9.36 1.05Q9.21 1.16 9.14 1.38L0.03 29.77Q-0.05 30.04 0.05 30.19Q0.06 30.2 0.07 30.21Q0.08 30.23 0.1 30.24Q0.22 30.36 0.45 30.36L4.65 30.36Q4.84 30.36 4.96 30.27Q5.12 30.17 5.2 29.94L6.58 25.45Q6.65 25.3 6.75 25.28Q6.77 25.27 6.79 25.27L17.88 25.27Q17.9 25.27 17.92 25.28Q18.02 25.3 18.09 25.45L19.47 29.94Q19.54 30.16 19.69 30.27ZM80.99 9.79Q79.17 8.56 76.5 8.56Q73.92 8.56 72.31 9.81Q71.75 10.24 71.31 10.82Q71.27 10.92 71.22 10.92Q71.2 10.93 71.17 10.92Q71.15 10.9 71.14 10.88Q71.09 10.83 71.09 10.74L71.09 1.46Q71.09 1.35 71.05 1.25Q71.01 1.17 70.94 1.1Q70.87 1.03 70.78 1Q70.69 0.96 70.59 0.96L66.72 0.96Q66.63 0.96 66.55 0.99Q66.45 1.02 66.36 1.1Q66.31 1.16 66.27 1.23Q66.22 1.33 66.22 1.46L66.22 29.85Q66.22 29.95 66.25 30.03Q66.29 30.13 66.36 30.21Q66.45 30.29 66.55 30.33Q66.63 30.36 66.72 30.36L70.59 30.36Q70.69 30.36 70.78 30.32Q70.87 30.28 70.94 30.21Q71.03 30.12 71.07 30.01Q71.09 29.94 71.09 29.85L71.09 17.05Q71.09 15.46 71.84 14.39Q72 14.15 72.2 13.94Q72.57 13.55 73.02 13.28Q73.92 12.76 75.12 12.76Q76.32 12.76 77.2 13.29Q77.65 13.56 78.01 13.96Q78.21 14.17 78.37 14.41Q79.11 15.49 79.11 17.09L79.11 29.85Q79.11 29.95 79.14 30.03Q79.17 30.13 79.25 30.21Q79.32 30.28 79.41 30.31Q79.51 30.36 79.62 30.36L83.48 30.36Q83.61 30.36 83.71 30.31Q83.78 30.27 83.84 30.21Q83.93 30.12 83.97 30.01Q83.99 29.94 83.99 29.85L83.99 16.07Q83.99 13.24 82.65 11.39Q82.33 10.96 81.95 10.58Q81.5 10.14 80.99 9.79ZM106.1 30.24Q106.25 30.36 106.49 30.36L110.2 30.36Q110.39 30.36 110.53 30.26Q110.67 30.16 110.74 29.94L115.45 9.9Q115.48 9.77 115.54 9.76Q115.55 9.75 115.57 9.76Q115.58 9.76 115.59 9.76Q115.66 9.79 115.69 9.9L120.61 29.94Q120.67 30.13 120.8 30.24Q120.95 30.36 121.2 30.36L125.11 30.36Q125.35 30.36 125.5 30.24Q125.63 30.13 125.69 29.94L132.96 1.5Q133.02 1.24 132.92 1.11Q132.8 0.96 132.5 0.96L128.59 0.96Q128.35 0.96 128.19 1.08Q128.06 1.18 128 1.38L123.3 20.57Q123.27 20.66 123.21 20.69Q123.19 20.7 123.17 20.7Q123.15 20.7 123.14 20.69Q123.08 20.67 123.04 20.57L118.17 1.38Q118.12 1.18 117.99 1.08Q117.84 0.96 117.59 0.96L113.55 0.96Q113.35 0.96 113.22 1.05Q113.07 1.16 113.01 1.38L108.43 20.53Q108.4 20.62 108.35 20.65Q108.32 20.66 108.3 20.66Q108.28 20.66 108.27 20.65Q108.21 20.63 108.18 20.53L103.39 1.38Q103.33 1.18 103.2 1.08Q103.05 0.96 102.8 0.96L98.68 0.96Q98.41 0.96 98.29 1.09Q98.22 1.19 98.22 1.34L98.26 1.5L105.91 29.94Q105.97 30.13 106.1 30.24ZM175.8 19.56Q175.8 16.79 175.08 14.44Q174.22 11.97 172.51 10.47Q172.3 10.28 172.08 10.12Q171.94 10.01 171.8 9.91Q169.84 8.56 166.94 8.56Q165.18 8.56 163.84 9.3Q162.89 9.82 162.15 10.7Q162.1 10.75 162.05 10.75Q162.01 10.76 161.98 10.74Q161.96 10.73 161.94 10.72Q161.89 10.67 161.89 10.58L161.89 1.46Q161.89 1.33 161.84 1.23Q161.81 1.16 161.75 1.1Q161.69 1.04 161.62 1.01Q161.52 0.96 161.39 0.96L157.53 0.96Q157.43 0.96 157.35 0.99Q157.25 1.02 157.17 1.1Q157.11 1.16 157.08 1.23Q157.02 1.33 157.02 1.46L157.02 29.85Q157.02 29.95 157.05 30.03Q157.09 30.13 157.17 30.21Q157.25 30.29 157.35 30.33Q157.43 30.36 157.53 30.36L161.39 30.36Q161.52 30.36 161.62 30.31Q161.69 30.27 161.75 30.21Q161.83 30.13 161.86 30.03Q161.89 29.95 161.89 29.85L161.89 28.55Q161.89 28.46 161.94 28.41Q161.96 28.4 161.98 28.39Q162 28.37 162.03 28.37Q162.09 28.38 162.15 28.47Q163.07 29.56 164.24 30.11Q165.47 30.7 166.98 30.7Q169.52 30.7 171.39 29.57Q171.71 29.38 172.01 29.15Q172.34 28.9 172.64 28.62Q174.22 27.15 175 24.81Q175.8 22.54 175.8 19.56ZM7.92 21.42Q7.86 21.35 7.88 21.2L12.17 7.13Q12.2 6.99 12.27 6.97Q12.28 6.97 12.29 6.97Q12.3 6.97 12.31 6.97Q12.38 6.99 12.41 7.13L16.74 21.2Q16.79 21.34 16.74 21.4Q16.69 21.46 16.58 21.46L8.05 21.46Q7.96 21.46 7.92 21.42ZM48.25 29.63Q50.28 30.7 52.86 30.7Q55.74 30.7 57.96 29.49Q58.27 29.32 58.57 29.13Q59.96 28.23 60.81 26.97Q61.47 26.02 61.81 24.85Q61.89 24.56 62.02 23.89Q62.05 23.71 61.98 23.58Q61.95 23.53 61.91 23.5Q61.86 23.44 61.79 23.39Q61.69 23.33 61.55 23.3L57.78 22.72Q57.58 22.68 57.43 22.75Q57.26 22.85 57.19 23.13Q57.19 23.22 57.15 23.26Q57.15 23.38 57.1 23.47Q56.93 24.17 56.55 24.73Q56.18 25.27 55.61 25.67Q55.4 25.82 55.19 25.93Q54.18 26.49 52.86 26.49Q51.48 26.49 50.48 25.87Q50.3 25.76 50.13 25.63Q49.86 25.41 49.63 25.16Q48.94 24.4 48.62 23.3Q48.25 21.88 48.25 19.56Q48.25 17.17 48.67 15.83Q48.91 14.89 49.47 14.22Q49.77 13.87 50.15 13.58Q50.33 13.45 50.53 13.34Q51.53 12.76 52.86 12.76Q54.23 12.76 55.27 13.35Q55.41 13.43 55.55 13.52Q56.36 14.05 56.78 14.8Q56.95 15.11 57.06 15.45Q57.15 15.69 57.23 16.03Q57.27 16.17 57.27 16.37Q57.35 16.63 57.52 16.73Q57.63 16.79 57.78 16.79L57.86 16.79L61.64 16.25Q61.91 16.2 62.02 16.04Q62.11 15.92 62.11 15.75L62.11 15.65Q62.02 14.99 61.81 14.31Q61.64 13.77 61.38 13.27Q60.48 11.48 58.57 10.2Q58.13 9.9 57.66 9.65Q55.54 8.56 52.86 8.56Q50.21 8.56 48.13 9.65Q47.68 9.89 47.25 10.18Q46.14 10.94 45.35 11.96Q44.47 13.1 44 14.57Q43.33 16.49 43.33 19.52Q43.33 22.67 44 24.56Q44.53 26.17 45.52 27.4Q46.26 28.32 47.27 29.03Q47.74 29.37 48.25 29.63ZM152.53 19.56Q152.53 18.26 152.36 17.21Q151.8 12.63 149.22 10.47Q146.93 8.56 143.04 8.56Q140.39 8.56 138.35 9.67Q137.87 9.94 137.43 10.26Q136.59 10.87 135.95 11.64Q134.8 13.02 134.26 14.9Q133.76 16.41 133.76 18.85Q133.76 22.88 134.72 25.15Q135.37 26.78 136.49 27.97Q137.18 28.71 138.05 29.27Q140.35 30.74 143.62 30.74Q146.27 30.74 148.43 29.73Q149.97 29.01 151.08 27.86Q151.52 27.4 151.9 26.87Q152.02 26.69 152 26.53Q151.97 26.35 151.77 26.19L149.17 24.06Q149.1 23.99 149.02 23.95Q148.95 23.93 148.87 23.93Q148.81 23.93 148.75 23.94Q148.58 23.99 148.45 24.18Q147.6 25.38 146.44 25.97Q145.32 26.53 143.92 26.53Q141.39 26.51 140.08 25.23Q139.36 24.53 139.01 23.47Q138.75 22.96 138.63 21.58Q138.63 21.47 138.69 21.41Q138.74 21.36 138.83 21.36L151.98 21.36Q152.24 21.36 152.37 21.23Q152.49 21.11 152.49 20.86L152.53 19.56ZM40.89 9.19Q39.89 8.64 38.54 8.64Q37.09 8.64 35.93 9.23Q34.58 9.91 33.63 11.38Q33.54 11.49 33.48 11.48Q33.48 11.48 33.48 11.48Q33.48 11.48 33.48 11.48Q33.42 11.45 33.42 11.28L33.42 9.4Q33.42 9.3 33.38 9.22Q33.35 9.13 33.26 9.05Q33.19 8.97 33.09 8.93Q33.01 8.9 32.91 8.9L29.05 8.9Q28.97 8.9 28.89 8.92Q28.78 8.96 28.69 9.05Q28.62 9.12 28.58 9.2Q28.55 9.29 28.55 9.4L28.55 29.85Q28.55 29.95 28.58 30.03Q28.61 30.13 28.69 30.21Q28.77 30.29 28.87 30.33Q28.96 30.36 29.05 30.36L32.91 30.36Q33.02 30.36 33.11 30.32Q33.19 30.28 33.26 30.21Q33.36 30.12 33.39 30.01Q33.42 29.94 33.42 29.85L33.42 17.97Q33.42 16.66 33.99 15.71Q34.24 15.31 34.59 14.97Q35.02 14.53 35.54 14.25Q36.42 13.78 37.53 13.73Q37.83 13.68 38.37 13.68Q39.21 13.68 39.85 13.89Q40.15 14.01 40.3 13.91Q40.41 13.82 40.43 13.6L41.15 9.82Q41.2 9.52 41.08 9.35Q41.01 9.25 40.89 9.19ZM89.59 30.31Q89.7 30.36 89.83 30.36L93.69 30.36Q93.8 30.36 93.89 30.32Q93.97 30.28 94.04 30.21Q94.13 30.12 94.17 30.01Q94.2 29.94 94.2 29.85L94.2 9.36Q94.2 9.26 94.16 9.18Q94.12 9.09 94.04 9.01Q93.96 8.93 93.87 8.89Q93.79 8.85 93.69 8.85L89.83 8.85Q89.71 8.85 89.62 8.9Q89.53 8.94 89.47 9.01Q89.4 9.08 89.36 9.16Q89.32 9.25 89.32 9.36L89.32 29.85Q89.32 29.95 89.35 30.03Q89.39 30.13 89.47 30.21Q89.53 30.27 89.59 30.31ZM140.6 13.44Q141.59 12.76 143.04 12.76Q144.6 12.76 145.67 13.49Q145.75 13.54 145.83 13.6Q146.13 13.83 146.37 14.1Q147.05 14.85 147.32 15.95Q147.49 16.49 147.57 17.55Q147.57 17.65 147.52 17.7Q147.47 17.75 147.37 17.75L138.83 17.75Q138.7 17.75 138.66 17.7Q138.63 17.64 138.67 17.55Q138.75 16.41 139.01 15.69Q139.35 14.58 140.07 13.87Q140.25 13.69 140.45 13.54Q140.52 13.49 140.6 13.44ZM170.8 19.65Q170.8 22.72 169.79 24.48Q169.44 25.1 168.93 25.54Q168.65 25.78 168.32 25.97Q168.22 26.03 168.12 26.08Q167.27 26.49 166.22 26.49Q165.22 26.49 164.45 26.07Q163.54 25.57 162.95 24.48Q161.98 22.84 161.98 19.6Q161.98 16.33 163.03 14.61Q163.62 13.61 164.49 13.15Q165.23 12.76 166.18 12.76Q167.43 12.76 168.34 13.32Q169.05 13.75 169.54 14.52Q170.8 16.37 170.8 19.65Z" fill="#2F2E2E" fill-opacity="1.000000" fill-rule="evenodd"/>
</svg>
