<svg width="103.000000" height="103.000000" viewBox="0 0 103 103" fill="none" xmlns="http://www.w3.org/2000/svg" xmlns:xlink="http://www.w3.org/1999/xlink">
	<desc>
			Created with Pixso.
	</desc>
	<defs/>
	<circle id="Ellipse 6" cx="51.500000" cy="51.500000" r="51.500000" fill="#254D4D" fill-opacity="1.000000"/>
	<path id="Vector" d="M32.29 24C30.62 24 29.02 24.57 27.84 25.59C26.66 26.62 26 28.01 26 29.45L26 73.12C26 74.57 26.66 75.96 27.84 76.98C29.02 78.01 30.62 78.58 32.29 78.58L70.08 78.58C71.75 78.58 73.35 78.01 74.53 76.98C75.71 75.96 76.37 74.57 76.37 73.12L76.37 40.37L57.48 24L32.29 24Z" stroke="#FFFFFF" stroke-opacity="1.000000" stroke-width="2.000000" stroke-linejoin="round"/>
	<path id="Vector" d="M57.48 24L57.48 40.37L76.37 40.37" stroke="#FFFFFF" stroke-opacity="1.000000" stroke-width="2.000000" stroke-linejoin="round" stroke-linecap="round"/>
	<path id="Vector" d="M63.78 54.02L38.59 54.02" stroke="#FFFFFF" stroke-opacity="1.000000" stroke-width="2.000000" stroke-linejoin="round" stroke-linecap="round"/>
	<path id="Vector" d="M63.78 64.94L38.59 64.94" stroke="#FFFFFF" stroke-opacity="1.000000" stroke-width="2.000000" stroke-linejoin="round" stroke-linecap="round"/>
	<path id="Vector" d="M44.89 43.1L41.74 43.1L38.59 43.1" stroke="#FFFFFF" stroke-opacity="1.000000" stroke-width="2.000000" stroke-linejoin="round" stroke-linecap="round"/>
</svg>
