<svg width="24.998291" height="21.481384" viewBox="0 0 24.9983 21.4814" fill="none" xmlns="http://www.w3.org/2000/svg" xmlns:xlink="http://www.w3.org/1999/xlink">
	<desc>
			Created with Pixso.
	</desc>
	<defs/>
	<path id="Vector" d="M24.65 18.57L19.79 14.38C19.57 14.2 19.27 14.09 18.95 14.09L18.16 14.09C19.51 12.61 20.31 10.75 20.31 8.72C20.31 3.9 15.76 0 10.15 0C4.54 0 0 3.9 0 8.72C0 13.54 4.54 17.45 10.15 17.45C12.51 17.45 14.68 16.76 16.4 15.6L16.4 16.28C16.4 16.55 16.52 16.81 16.74 17L21.61 21.18C22.07 21.58 22.81 21.58 23.27 21.18L24.65 19.99C25.11 19.6 25.11 18.96 24.65 18.57ZM10.15 14.09C6.7 14.09 3.9 11.69 3.9 8.72C3.9 5.75 6.69 3.35 10.15 3.35C13.6 3.35 16.4 5.75 16.4 8.72C16.4 11.69 13.61 14.09 10.15 14.09Z" fill="#2F2E2E" fill-opacity="1.000000" fill-rule="nonzero"/>
</svg>
